<svg xmlns:dc="http://purl.org/dc/elements/1.1/" xmlns:cc="http://creativecommons.org/ns#" xmlns:rdf="http://www.w3.org/1999/02/22-rdf-syntax-ns#" xmlns:svg="http://www.w3.org/2000/svg" xmlns="http://www.w3.org/2000/svg" id="svg142900" viewBox="252 316.5729675292969 520 134.85305786132812" height="768px" width="1024px" version="1.1">
  <metadata id="metadata142906">
    <rdf:rdf>
      <cc:work rdf:about="">
        <dc:format>image/svg+xml</dc:format>
        <dc:type rdf:resource="http://purl.org/dc/dcmitype/StillImage"></dc:type>
      </cc:work>
    </rdf:rdf>
  </metadata>
  <defs id="defs142904"></defs>
  <g id="logo-group">
    <g id="title" style="font-style:normal;font-weight:500;font-size:72px;line-height:1;font-family:'Raleway Medium Alt1';font-variant-ligatures:none;text-align:center;text-anchor:middle">
      <path id="path142908" style="font-style: normal; font-weight: 500; font-size: 72px; line-height: 1; font-family: &quot;Raleway Medium Alt1&quot;; font-variant-ligatures: none; text-align: center; text-anchor: middle; fill: rgb(255, 255, 255);" d="m 381.41225,67.44 v 45.144 c 0,2.52 0.648,4.464 2.088,5.832 1.44,1.44 3.384,2.088 5.832,2.088 1.08,0 2.376,-0.144 3.816,-0.432 1.44,-0.288 2.664,-0.648 3.744,-1.08 l -1.008,-5.112 c -0.648,0.288 -1.296,0.504 -2.016,0.648 -0.72,0.144 -1.368,0.216 -1.872,0.216 -1.368,0 -2.448,-0.36 -3.168,-1.152 -0.72,-0.792 -1.08,-1.872 -1.08,-3.312 V 67.44 Z" transform="translate(0 201.74860547017386) translate(252.0000000000001 114.82465966501155) scale(1.9612197459224725) translate(-381.41225 -67.44)"></path>
      <path id="path142910" style="font-style: normal; font-weight: 500; font-size: 72px; line-height: 1; font-family: &quot;Raleway Medium Alt1&quot;; font-variant-ligatures: none; text-align: center; text-anchor: middle; fill: rgb(255, 255, 255);" d="m 401.7995,120 h 6.336 V 82.416 h -6.336 z m 0,-44.64 h 6.336 v -7.92 h -6.336 z" transform="translate(0 201.74860547017386) translate(291.9838772650581 114.82465966501155) scale(1.9612197459224725) translate(-401.7995 -67.44)"></path>
      <path id="path142912" style="font-style: normal; font-weight: 500; font-size: 72px; line-height: 1; font-family: &quot;Raleway Medium Alt1&quot;; font-variant-ligatures: none; text-align: center; text-anchor: middle; fill: rgb(166, 166, 166);" d="m 415.87325,101.136 c 0,2.664 0.432,5.184 1.368,7.56 0.936,2.376 2.232,4.464 3.96,6.192 1.656,1.8 3.672,3.24 6.048,4.248 2.304,1.08 4.896,1.584 7.776,1.584 1.872,0 3.6,-0.216 5.328,-0.72 1.728,-0.432 3.24,-1.08 4.68,-1.944 1.368,-0.792 2.592,-1.8 3.6,-2.952 1.008,-1.152 1.872,-2.376 2.448,-3.816 l -6.192,-1.872 c -0.288,0.864 -0.792,1.584 -1.44,2.304 -0.72,0.72 -1.512,1.296 -2.376,1.8 -0.864,0.576 -1.872,1.008 -2.952,1.296 -1.08,0.288 -2.16,0.432 -3.24,0.432 -1.728,0 -3.384,-0.36 -4.896,-1.08 -1.512,-0.72 -2.808,-1.656 -3.96,-2.952 -1.152,-1.296 -2.016,-2.808 -2.664,-4.536 -0.72,-1.728 -1.008,-3.528 -1.008,-5.544 0,-2.016 0.288,-3.816 0.936,-5.544 0.648,-1.656 1.512,-3.096 2.664,-4.392 1.08,-1.224 2.376,-2.16 3.96,-2.88 1.512,-0.72 3.168,-1.08 4.896,-1.08 2.088,0 4.032,0.504 5.76,1.512 1.728,1.008 3.024,2.376 4.032,4.104 l 6.192,-1.944 c -1.44,-2.736 -3.456,-4.968 -6.192,-6.624 -2.736,-1.656 -5.904,-2.52 -9.648,-2.52 -2.88,0 -5.544,0.576 -7.848,1.584 -2.304,1.008 -4.32,2.448 -5.976,4.176 -1.728,1.728 -3.024,3.816 -3.888,6.12 -0.936,2.376 -1.368,4.896 -1.368,7.488 z" transform="translate(0 201.74860547017386) translate(319.5855936642344 142.92501618458874) scale(1.9612197459224725) translate(-415.87325 -81.768)"></path>
      <path id="path142914" style="font-style: normal; font-weight: 500; font-size: 72px; line-height: 1; font-family: &quot;Raleway Medium Alt1&quot;; font-variant-ligatures: none; text-align: center; text-anchor: middle; fill: rgb(166, 166, 166);" d="M 490.94675,120 V 97.536 c 0,-2.16 -0.216,-4.248 -0.648,-6.192 -0.432,-1.944 -1.08,-3.6 -1.944,-5.04 -0.936,-1.368 -2.16,-2.448 -3.672,-3.312 -1.584,-0.792 -3.456,-1.224 -5.616,-1.224 -3.024,0 -5.832,0.792 -8.352,2.304 -2.592,1.584 -4.608,3.672 -6.048,6.408 V 67.44 h -6.336 V 120 h 6.336 V 97.32 c 0.432,-1.44 1.008,-2.736 1.872,-3.96 0.864,-1.152 1.8,-2.232 2.88,-3.096 1.08,-0.864 2.232,-1.512 3.528,-2.016 1.224,-0.504 2.448,-0.792 3.744,-0.792 2.592,0 4.536,1.008 5.904,2.88 1.296,1.872 2.016,4.752 2.016,8.64 V 120 Z" transform="translate(0 201.74860547017386) translate(402.85408102673796 114.82465966501155) scale(1.9612197459224725) translate(-458.33075 -67.44)"></path>
      <path id="path142916" style="font-style: normal; font-weight: 500; font-size: 72px; line-height: 1; font-family: &quot;Raleway Medium Alt1&quot;; font-variant-ligatures: none; text-align: center; text-anchor: middle; fill: rgb(89, 89, 89);" d="m 517.4315,120.72 c 1.872,0 3.672,-0.216 5.4,-0.72 1.728,-0.432 3.24,-1.08 4.68,-1.944 1.44,-0.864 2.664,-1.872 3.744,-3.024 1.08,-1.152 1.944,-2.376 2.592,-3.816 l -5.472,-1.512 c -0.432,1.008 -1.008,1.872 -1.728,2.592 -0.72,0.792 -1.584,1.44 -2.52,1.944 -1.008,0.576 -2.016,1.008 -3.096,1.296 -1.152,0.288 -2.232,0.432 -3.384,0.432 -1.656,0 -3.24,-0.288 -4.68,-0.936 -1.44,-0.576 -2.736,-1.44 -3.888,-2.592 -1.152,-1.08 -2.088,-2.376 -2.808,-3.96 -0.72,-1.512 -1.152,-3.24 -1.296,-5.112 h 31.176 c 0,-0.216 0.072,-0.576 0.072,-1.008 0,-0.432 0.072,-0.864 0.072,-1.44 0,-2.448 -0.504,-4.896 -1.368,-7.2 -0.864,-2.304 -2.16,-4.392 -3.744,-6.12 -1.656,-1.728 -3.672,-3.168 -5.976,-4.248 -2.304,-1.008 -4.896,-1.584 -7.704,-1.584 -2.88,0 -5.472,0.576 -7.776,1.584 -2.376,1.008 -4.392,2.448 -6.12,4.176 -1.728,1.8 -3.024,3.888 -3.96,6.192 -0.936,2.376 -1.368,4.896 -1.368,7.488 0,2.664 0.432,5.184 1.368,7.56 0.936,2.376 2.232,4.464 3.96,6.192 1.656,1.8 3.672,3.24 6.048,4.248 2.304,1.008 4.896,1.512 7.776,1.512 z m 12.888,-22.032 h -25.488 c 0.144,-1.728 0.504,-3.384 1.224,-4.896 0.72,-1.44 1.584,-2.736 2.736,-3.816 1.152,-1.08 2.448,-1.944 3.96,-2.52 1.44,-0.576 3.024,-0.936 4.752,-0.936 1.656,0 3.24,0.36 4.752,0.936 1.44,0.576 2.736,1.44 3.888,2.448 1.152,1.08 2.088,2.376 2.808,3.888 0.72,1.512 1.224,3.168 1.368,4.896 z" transform="translate(0 201.74860547017386) translate(481.2023583516583 142.92501618458874) scale(1.9612197459224725) translate(-498.2795 -81.768)"></path>
      <path id="path142918" style="font-style: normal; font-weight: 500; font-size: 72px; line-height: 1; font-family: &quot;Raleway Medium Alt1&quot;; font-variant-ligatures: none; text-align: center; text-anchor: middle; fill: rgb(89, 89, 89);" d="m 556.58487,120.72 c 4.536,0 8.136,-1.008 10.872,-3.096 2.664,-2.016 4.032,-4.824 4.032,-8.352 0,-1.584 -0.36,-2.88 -0.936,-4.032 -0.576,-1.08 -1.51199,-2.016 -2.736,-2.88 -1.22399,-0.792 -2.736,-1.512 -4.60799,-2.088 -1.87201,-0.576 -4.03201,-1.224 -6.48,-1.8 -1.58401,-0.36 -2.952,-0.72 -4.10401,-1.08 -1.15199,-0.288 -2.016,-0.72 -2.736,-1.152 -0.72,-0.432 -1.29599,-0.936 -1.58399,-1.512 -0.288,-0.576 -0.432,-1.296 -0.432,-2.16 0,-2.16 0.792,-3.672 2.37599,-4.68 1.584,-1.008 3.60001,-1.512 5.904,-1.512 2.016,0 4.03201,0.36 6.048,1.08 1.944,0.72 3.74401,1.728 5.328,3.096 l 2.88,-3.816 c -1.72799,-1.44 -3.74399,-2.664 -6.192,-3.6 -2.448,-0.864 -5.112,-1.368 -7.92,-1.368 -2.01599,0 -3.96,0.288 -5.688,0.792 -1.728,0.504 -3.24,1.224 -4.536,2.232 -1.29599,1.008 -2.376,2.232 -3.096,3.672 -0.71999,1.44 -1.07999,3.096 -1.07999,4.968 0,1.512 0.216,2.736 0.72,3.744 0.43199,1.008 1.22399,1.872 2.304,2.592 1.00799,0.72 2.37599,1.368 4.03199,1.872 1.584,0.576 3.528,1.08 5.83201,1.656 1.72799,0.432 3.31199,0.864 4.67999,1.224 1.296,0.432 2.448,0.864 3.31201,1.296 0.864,0.504 1.51199,1.08 1.94399,1.728 0.432,0.648 0.648,1.44 0.648,2.304 0,2.016 -0.864,3.528 -2.44799,4.608 -1.58401,1.08 -3.74401,1.584 -6.48001,1.584 -2.44799,0 -4.82399,-0.36 -6.984,-1.224 -2.232,-0.864 -4.46399,-2.088 -6.624,-3.816 l -2.736,4.248 c 2.08801,1.8 4.60801,3.168 7.56001,4.104 2.87999,0.936 5.90399,1.368 8.92799,1.368 z" transform="translate(0 201.74860547017386) translate(563.2154101182043 142.92501618458874) scale(1.9612197459224725) translate(-540.09687 -81.768)"></path>
      <path id="path142920" style="font-style: normal; font-weight: 500; font-size: 72px; line-height: 1; font-family: &quot;Raleway Medium Alt1&quot;; font-variant-ligatures: none; text-align: center; text-anchor: middle; fill: rgb(0, 0, 0);" d="m 592.163,120.72 c 4.536,0 8.136,-1.008 10.872,-3.096 2.664,-2.016 4.032,-4.824 4.032,-8.352 0,-1.584 -0.36,-2.88 -0.936,-4.032 -0.576,-1.08 -1.512,-2.016 -2.736,-2.88 -1.224,-0.792 -2.736,-1.512 -4.608,-2.088 -1.872,-0.576 -4.032,-1.224 -6.48,-1.8 -1.584,-0.36 -2.952,-0.72 -4.104,-1.08 -1.152,-0.288 -2.016,-0.72 -2.736,-1.152 -0.72,-0.432 -1.296,-0.936 -1.584,-1.512 -0.288,-0.576 -0.432,-1.296 -0.432,-2.16 0,-2.16 0.792,-3.672 2.376,-4.68 1.584,-1.008 3.6,-1.512 5.904,-1.512 2.016,0 4.032,0.36 6.048,1.08 1.944,0.72 3.744,1.728 5.328,3.096 l 2.88,-3.816 c -1.728,-1.44 -3.744,-2.664 -6.192,-3.6 -2.448,-0.864 -5.112,-1.368 -7.92,-1.368 -2.016,0 -3.96,0.288 -5.688,0.792 -1.728,0.504 -3.24,1.224 -4.536,2.232 -1.296,1.008 -2.376,2.232 -3.096,3.672 -0.72,1.44 -1.08,3.096 -1.08,4.968 0,1.512 0.216,2.736 0.72,3.744 0.432,1.008 1.224,1.872 2.304,2.592 1.008,0.72 2.376,1.368 4.032,1.872 1.584,0.576 3.528,1.08 5.832,1.656 1.728,0.432 3.312,0.864 4.68,1.224 1.296,0.432 2.448,0.864 3.312,1.296 0.864,0.504 1.512,1.08 1.944,1.728 0.432,0.648 0.648,1.44 0.648,2.304 0,2.016 -0.864,3.528 -2.448,4.608 -1.584,1.08 -3.744,1.584 -6.48,1.584 -2.448,0 -4.824,-0.36 -6.984,-1.224 -2.232,-0.864 -4.464,-2.088 -6.624,-3.816 l -2.736,4.248 c 2.088,1.8 4.608,3.168 7.56,4.104 2.88,0.936 5.904,1.368 8.928,1.368 z" transform="translate(0 201.74860547017386) translate(632.9919411972008 142.92501618458874) scale(1.9612197459224725) translate(-575.675 -81.768)"></path>
      <path id="path142922" style="font-style: normal; font-weight: 500; font-size: 72px; line-height: 1; font-family: &quot;Raleway Medium Alt1&quot;; font-variant-ligatures: none; text-align: center; text-anchor: middle; fill: rgb(0, 0, 0);" d="m 615.44938,130.224 v 5.616 c 0.648,0.144 1.22399,0.288 1.65599,0.288 0.432,0.072 0.93601,0.072 1.36801,0.072 2.736,0 4.82399,-0.576 6.408,-1.872 1.58399,-1.296 2.664,-2.736 3.38399,-4.464 l 18.288,-47.448 h -6.048 l -11.664,31.896 -12.81599,-31.896 h -6.552 L 625.38537,120 c -0.86399,2.232 -1.584,4.032 -2.16,5.4 -0.576,1.368 -1.15199,2.448 -1.58399,3.168 -0.432,0.792 -0.93601,1.296 -1.36801,1.584 -0.432,0.288 -0.936,0.36 -1.51199,0.36 -0.36,0 -0.86401,0 -1.44001,-0.072 -0.648,0 -1.29599,-0.072 -1.87199,-0.216 z" transform="translate(0 201.74860547017386) translate(699.2779914333921 144.1958865799465) scale(1.9612197459224725) translate(-609.47338 -82.416)"></path>
    </g>
    <g id="tagline" style="font-style:oblique;font-weight:600;font-size:32px;line-height:1;font-family:Raleway;font-variant-ligatures:none;text-align:center;text-anchor:middle"></g>
  </g>
</svg>
